<mxfile host="app.diagrams.net" modified="2024-02-04T11:40:37.005Z" agent="Mozilla/5.0 (Macintosh; Intel Mac OS X 10_15_7) AppleWebKit/537.36 (KHTML, like Gecko) Chrome/121.0.0.0 Safari/537.36" etag="mxJxJI4OZnca-_tv9Sfr" version="22.1.18" type="github">
  <diagram name="第 1 页" id="ghGFPaphjzri0F8Irfxw">
    <mxGraphModel dx="2069" dy="1955" grid="1" gridSize="10" guides="1" tooltips="1" connect="1" arrows="1" fold="1" page="1" pageScale="1" pageWidth="827" pageHeight="1169" math="0" shadow="0">
      <root>
        <mxCell id="0" />
        <mxCell id="1" parent="0" />
        <mxCell id="bA5kErI_qKJ0i6vfES4a-50" value="SuperSQL&lt;br&gt;&lt;br&gt;&lt;br&gt;&lt;br&gt;&lt;br&gt;&lt;br&gt;&lt;br&gt;&lt;br&gt;&lt;br&gt;&lt;br&gt;&lt;br&gt;&lt;br&gt;&lt;br&gt;&lt;br&gt;&lt;br&gt;&lt;br&gt;&lt;br&gt;&lt;br&gt;&lt;br&gt;&lt;br&gt;&lt;br&gt;&lt;br&gt;" style="rounded=1;whiteSpace=wrap;html=1;dashed=1;" vertex="1" parent="1">
          <mxGeometry x="850" y="-205" width="380" height="345" as="geometry" />
        </mxCell>
        <mxCell id="bA5kErI_qKJ0i6vfES4a-40" style="edgeStyle=orthogonalEdgeStyle;rounded=0;orthogonalLoop=1;jettySize=auto;html=1;exitX=0.5;exitY=1;exitDx=0;exitDy=0;entryX=0.5;entryY=0;entryDx=0;entryDy=0;" edge="1" parent="1" source="bA5kErI_qKJ0i6vfES4a-39" target="bA5kErI_qKJ0i6vfES4a-41">
          <mxGeometry relative="1" as="geometry" />
        </mxCell>
        <mxCell id="bA5kErI_qKJ0i6vfES4a-39" value="History DQL/DML/DDL&lt;br&gt;&lt;br&gt;&lt;br&gt;&lt;br&gt;&lt;br&gt;&lt;br&gt;" style="ellipse;whiteSpace=wrap;html=1;dashed=1;" vertex="1" parent="1">
          <mxGeometry x="144" y="-245" width="380" height="140" as="geometry" />
        </mxCell>
        <mxCell id="bA5kErI_qKJ0i6vfES4a-6" style="edgeStyle=orthogonalEdgeStyle;rounded=0;orthogonalLoop=1;jettySize=auto;html=1;exitX=1;exitY=0.5;exitDx=0;exitDy=0;entryX=0;entryY=0.25;entryDx=0;entryDy=0;" edge="1" parent="1" source="bA5kErI_qKJ0i6vfES4a-1" target="bA5kErI_qKJ0i6vfES4a-3">
          <mxGeometry relative="1" as="geometry" />
        </mxCell>
        <mxCell id="bA5kErI_qKJ0i6vfES4a-1" value="Hot Table Statistics" style="ellipse;whiteSpace=wrap;html=1;" vertex="1" parent="1">
          <mxGeometry x="-306" y="130" width="120" height="50" as="geometry" />
        </mxCell>
        <mxCell id="bA5kErI_qKJ0i6vfES4a-5" style="edgeStyle=orthogonalEdgeStyle;rounded=0;orthogonalLoop=1;jettySize=auto;html=1;exitX=1;exitY=0.5;exitDx=0;exitDy=0;entryX=0;entryY=0.5;entryDx=0;entryDy=0;" edge="1" parent="1" source="bA5kErI_qKJ0i6vfES4a-2" target="bA5kErI_qKJ0i6vfES4a-3">
          <mxGeometry relative="1" as="geometry" />
        </mxCell>
        <mxCell id="bA5kErI_qKJ0i6vfES4a-2" value="Metadata Changes" style="ellipse;whiteSpace=wrap;html=1;" vertex="1" parent="1">
          <mxGeometry x="-306" y="215" width="120" height="50" as="geometry" />
        </mxCell>
        <mxCell id="bA5kErI_qKJ0i6vfES4a-3" value="UNI-DS" style="rounded=0;whiteSpace=wrap;html=1;" vertex="1" parent="1">
          <mxGeometry x="-76" y="210" width="120" height="60" as="geometry" />
        </mxCell>
        <mxCell id="bA5kErI_qKJ0i6vfES4a-7" style="edgeStyle=orthogonalEdgeStyle;rounded=0;orthogonalLoop=1;jettySize=auto;html=1;exitX=1;exitY=0.5;exitDx=0;exitDy=0;entryX=0;entryY=0.75;entryDx=0;entryDy=0;" edge="1" parent="1" source="bA5kErI_qKJ0i6vfES4a-4" target="bA5kErI_qKJ0i6vfES4a-3">
          <mxGeometry relative="1" as="geometry" />
        </mxCell>
        <mxCell id="bA5kErI_qKJ0i6vfES4a-4" value="Real-time&lt;br&gt;Partition data &lt;br&gt;Changes" style="ellipse;whiteSpace=wrap;html=1;" vertex="1" parent="1">
          <mxGeometry x="-306" y="310" width="120" height="50" as="geometry" />
        </mxCell>
        <mxCell id="bA5kErI_qKJ0i6vfES4a-10" value="Data Cube" style="shape=cube;whiteSpace=wrap;html=1;boundedLbl=1;backgroundOutline=1;darkOpacity=0.05;darkOpacity2=0.1;" vertex="1" parent="1">
          <mxGeometry x="274" y="180" width="140" height="140" as="geometry" />
        </mxCell>
        <mxCell id="bA5kErI_qKJ0i6vfES4a-29" style="edgeStyle=orthogonalEdgeStyle;rounded=0;orthogonalLoop=1;jettySize=auto;html=1;exitX=1;exitY=0.5;exitDx=0;exitDy=0;entryX=0;entryY=0.5;entryDx=0;entryDy=0;" edge="1" parent="1" source="bA5kErI_qKJ0i6vfES4a-11" target="bA5kErI_qKJ0i6vfES4a-28">
          <mxGeometry relative="1" as="geometry" />
        </mxCell>
        <mxCell id="bA5kErI_qKJ0i6vfES4a-11" value="Lattice Suggester" style="rounded=0;whiteSpace=wrap;html=1;" vertex="1" parent="1">
          <mxGeometry x="480" y="230" width="120" height="60" as="geometry" />
        </mxCell>
        <mxCell id="bA5kErI_qKJ0i6vfES4a-12" style="edgeStyle=orthogonalEdgeStyle;rounded=0;orthogonalLoop=1;jettySize=auto;html=1;exitX=0;exitY=0.5;exitDx=0;exitDy=0;entryX=0;entryY=0;entryDx=140;entryDy=80;entryPerimeter=0;startArrow=none;startFill=0;endArrow=classic;endFill=1;" edge="1" parent="1" source="bA5kErI_qKJ0i6vfES4a-11" target="bA5kErI_qKJ0i6vfES4a-10">
          <mxGeometry relative="1" as="geometry" />
        </mxCell>
        <mxCell id="bA5kErI_qKJ0i6vfES4a-14" style="edgeStyle=orthogonalEdgeStyle;rounded=0;orthogonalLoop=1;jettySize=auto;html=1;exitX=0;exitY=0.5;exitDx=0;exitDy=0;entryX=1;entryY=0.5;entryDx=0;entryDy=0;" edge="1" parent="1" source="bA5kErI_qKJ0i6vfES4a-13" target="bA5kErI_qKJ0i6vfES4a-3">
          <mxGeometry relative="1" as="geometry" />
        </mxCell>
        <mxCell id="bA5kErI_qKJ0i6vfES4a-13" value="Lattice Statistic Provider" style="rounded=0;whiteSpace=wrap;html=1;" vertex="1" parent="1">
          <mxGeometry x="104" y="210" width="120" height="60" as="geometry" />
        </mxCell>
        <mxCell id="bA5kErI_qKJ0i6vfES4a-19" style="edgeStyle=orthogonalEdgeStyle;rounded=0;orthogonalLoop=1;jettySize=auto;html=1;exitX=1;exitY=0.5;exitDx=0;exitDy=0;entryX=0.5;entryY=0;entryDx=0;entryDy=0;" edge="1" parent="1" source="bA5kErI_qKJ0i6vfES4a-15" target="bA5kErI_qKJ0i6vfES4a-1">
          <mxGeometry relative="1" as="geometry" />
        </mxCell>
        <mxCell id="bA5kErI_qKJ0i6vfES4a-15" value="Row Bytes" style="shape=parallelogram;perimeter=parallelogramPerimeter;whiteSpace=wrap;html=1;fixedSize=1;" vertex="1" parent="1">
          <mxGeometry x="-476" y="90" width="120" height="40" as="geometry" />
        </mxCell>
        <mxCell id="bA5kErI_qKJ0i6vfES4a-18" style="edgeStyle=orthogonalEdgeStyle;rounded=0;orthogonalLoop=1;jettySize=auto;html=1;exitX=1;exitY=0.5;exitDx=0;exitDy=0;" edge="1" parent="1" source="bA5kErI_qKJ0i6vfES4a-17" target="bA5kErI_qKJ0i6vfES4a-1">
          <mxGeometry relative="1" as="geometry" />
        </mxCell>
        <mxCell id="bA5kErI_qKJ0i6vfES4a-17" value="Row Count" style="shape=parallelogram;perimeter=parallelogramPerimeter;whiteSpace=wrap;html=1;fixedSize=1;" vertex="1" parent="1">
          <mxGeometry x="-456" y="50" width="120" height="40" as="geometry" />
        </mxCell>
        <mxCell id="bA5kErI_qKJ0i6vfES4a-22" style="edgeStyle=orthogonalEdgeStyle;rounded=0;orthogonalLoop=1;jettySize=auto;html=1;exitX=1;exitY=0.5;exitDx=0;exitDy=0;entryX=0;entryY=0.5;entryDx=0;entryDy=0;" edge="1" parent="1" source="bA5kErI_qKJ0i6vfES4a-20" target="bA5kErI_qKJ0i6vfES4a-2">
          <mxGeometry relative="1" as="geometry" />
        </mxCell>
        <mxCell id="bA5kErI_qKJ0i6vfES4a-20" value="DDL" style="shape=parallelogram;perimeter=parallelogramPerimeter;whiteSpace=wrap;html=1;fixedSize=1;" vertex="1" parent="1">
          <mxGeometry x="-476" y="220" width="120" height="40" as="geometry" />
        </mxCell>
        <mxCell id="bA5kErI_qKJ0i6vfES4a-21" style="edgeStyle=orthogonalEdgeStyle;rounded=0;orthogonalLoop=1;jettySize=auto;html=1;exitX=1;exitY=0.5;exitDx=0;exitDy=0;entryX=0;entryY=0;entryDx=0;entryDy=60;entryPerimeter=0;" edge="1" parent="1" source="bA5kErI_qKJ0i6vfES4a-13" target="bA5kErI_qKJ0i6vfES4a-10">
          <mxGeometry relative="1" as="geometry" />
        </mxCell>
        <mxCell id="bA5kErI_qKJ0i6vfES4a-23" value="Scheduled Task" style="text;html=1;align=center;verticalAlign=middle;resizable=0;points=[];autosize=1;strokeColor=none;fillColor=none;" vertex="1" parent="1">
          <mxGeometry x="-346" y="78" width="110" height="30" as="geometry" />
        </mxCell>
        <mxCell id="bA5kErI_qKJ0i6vfES4a-25" style="edgeStyle=orthogonalEdgeStyle;rounded=0;orthogonalLoop=1;jettySize=auto;html=1;exitX=1;exitY=0.5;exitDx=0;exitDy=0;exitPerimeter=0;entryX=0.5;entryY=1;entryDx=0;entryDy=0;" edge="1" parent="1" source="bA5kErI_qKJ0i6vfES4a-24" target="bA5kErI_qKJ0i6vfES4a-4">
          <mxGeometry relative="1" as="geometry" />
        </mxCell>
        <mxCell id="bA5kErI_qKJ0i6vfES4a-24" value="Thive/Hive/Iceberg&lt;br&gt;DataSource" style="shape=cylinder3;whiteSpace=wrap;html=1;boundedLbl=1;backgroundOutline=1;size=15;" vertex="1" parent="1">
          <mxGeometry x="-476" y="340" width="120" height="80" as="geometry" />
        </mxCell>
        <mxCell id="bA5kErI_qKJ0i6vfES4a-63" style="edgeStyle=orthogonalEdgeStyle;rounded=0;orthogonalLoop=1;jettySize=auto;html=1;exitX=0.5;exitY=1;exitDx=0;exitDy=0;entryX=0.5;entryY=0;entryDx=0;entryDy=0;" edge="1" parent="1" source="bA5kErI_qKJ0i6vfES4a-27" target="bA5kErI_qKJ0i6vfES4a-62">
          <mxGeometry relative="1" as="geometry" />
        </mxCell>
        <mxCell id="bA5kErI_qKJ0i6vfES4a-27" value="&amp;nbsp;Materialized View Rewrite" style="rounded=0;whiteSpace=wrap;html=1;" vertex="1" parent="1">
          <mxGeometry x="1080" y="-45" width="120" height="60" as="geometry" />
        </mxCell>
        <mxCell id="bA5kErI_qKJ0i6vfES4a-31" style="edgeStyle=orthogonalEdgeStyle;rounded=0;orthogonalLoop=1;jettySize=auto;html=1;exitX=1;exitY=0.5;exitDx=0;exitDy=0;entryX=0;entryY=0.5;entryDx=0;entryDy=0;" edge="1" parent="1" source="bA5kErI_qKJ0i6vfES4a-28" target="bA5kErI_qKJ0i6vfES4a-30">
          <mxGeometry relative="1" as="geometry" />
        </mxCell>
        <mxCell id="bA5kErI_qKJ0i6vfES4a-28" value="Lattices" style="rounded=0;whiteSpace=wrap;html=1;" vertex="1" parent="1">
          <mxGeometry x="670" y="230" width="120" height="60" as="geometry" />
        </mxCell>
        <mxCell id="bA5kErI_qKJ0i6vfES4a-56" style="edgeStyle=orthogonalEdgeStyle;rounded=0;orthogonalLoop=1;jettySize=auto;html=1;exitX=1;exitY=0.5;exitDx=0;exitDy=0;entryX=0.5;entryY=1;entryDx=0;entryDy=0;" edge="1" parent="1" source="bA5kErI_qKJ0i6vfES4a-30" target="bA5kErI_qKJ0i6vfES4a-50">
          <mxGeometry relative="1" as="geometry" />
        </mxCell>
        <mxCell id="bA5kErI_qKJ0i6vfES4a-30" value="Create MV" style="rounded=0;whiteSpace=wrap;html=1;" vertex="1" parent="1">
          <mxGeometry x="900" y="230" width="120" height="60" as="geometry" />
        </mxCell>
        <mxCell id="bA5kErI_qKJ0i6vfES4a-32" value="Convert to Query" style="text;html=1;align=center;verticalAlign=middle;resizable=0;points=[];autosize=1;strokeColor=none;fillColor=none;" vertex="1" parent="1">
          <mxGeometry x="790" y="230" width="110" height="30" as="geometry" />
        </mxCell>
        <mxCell id="bA5kErI_qKJ0i6vfES4a-37" value="More than 30 min" style="rounded=1;whiteSpace=wrap;html=1;" vertex="1" parent="1">
          <mxGeometry x="200" y="-205" width="120" height="60" as="geometry" />
        </mxCell>
        <mxCell id="bA5kErI_qKJ0i6vfES4a-38" value="Timeout" style="rounded=1;whiteSpace=wrap;html=1;" vertex="1" parent="1">
          <mxGeometry x="360" y="-205" width="120" height="60" as="geometry" />
        </mxCell>
        <mxCell id="bA5kErI_qKJ0i6vfES4a-47" style="edgeStyle=orthogonalEdgeStyle;rounded=0;orthogonalLoop=1;jettySize=auto;html=1;exitX=0.5;exitY=1;exitDx=0;exitDy=0;entryX=0.5;entryY=0;entryDx=0;entryDy=0;" edge="1" parent="1" source="bA5kErI_qKJ0i6vfES4a-41" target="bA5kErI_qKJ0i6vfES4a-42">
          <mxGeometry relative="1" as="geometry" />
        </mxCell>
        <mxCell id="bA5kErI_qKJ0i6vfES4a-41" value="parser" style="rounded=0;whiteSpace=wrap;html=1;" vertex="1" parent="1">
          <mxGeometry x="274" y="-75" width="120" height="60" as="geometry" />
        </mxCell>
        <mxCell id="bA5kErI_qKJ0i6vfES4a-46" style="edgeStyle=orthogonalEdgeStyle;rounded=0;orthogonalLoop=1;jettySize=auto;html=1;exitX=0.5;exitY=1;exitDx=0;exitDy=0;entryX=0.5;entryY=0;entryDx=0;entryDy=0;" edge="1" parent="1" source="bA5kErI_qKJ0i6vfES4a-42" target="bA5kErI_qKJ0i6vfES4a-43">
          <mxGeometry relative="1" as="geometry" />
        </mxCell>
        <mxCell id="bA5kErI_qKJ0i6vfES4a-42" value="validate" style="rounded=0;whiteSpace=wrap;html=1;" vertex="1" parent="1">
          <mxGeometry x="274" y="5" width="120" height="60" as="geometry" />
        </mxCell>
        <mxCell id="bA5kErI_qKJ0i6vfES4a-43" value="validate" style="rounded=0;whiteSpace=wrap;html=1;" vertex="1" parent="1">
          <mxGeometry x="274" y="85" width="120" height="60" as="geometry" />
        </mxCell>
        <mxCell id="bA5kErI_qKJ0i6vfES4a-44" style="edgeStyle=orthogonalEdgeStyle;rounded=0;orthogonalLoop=1;jettySize=auto;html=1;exitX=0.5;exitY=1;exitDx=0;exitDy=0;entryX=0;entryY=0;entryDx=60;entryDy=0;entryPerimeter=0;" edge="1" parent="1" source="bA5kErI_qKJ0i6vfES4a-43" target="bA5kErI_qKJ0i6vfES4a-10">
          <mxGeometry relative="1" as="geometry" />
        </mxCell>
        <mxCell id="bA5kErI_qKJ0i6vfES4a-45" value="add" style="text;html=1;align=center;verticalAlign=middle;resizable=0;points=[];autosize=1;strokeColor=none;fillColor=none;" vertex="1" parent="1">
          <mxGeometry x="330" y="150" width="40" height="30" as="geometry" />
        </mxCell>
        <mxCell id="bA5kErI_qKJ0i6vfES4a-48" value="compute" style="text;html=1;align=center;verticalAlign=middle;resizable=0;points=[];autosize=1;strokeColor=none;fillColor=none;" vertex="1" parent="1">
          <mxGeometry x="600" y="230" width="70" height="30" as="geometry" />
        </mxCell>
        <mxCell id="bA5kErI_qKJ0i6vfES4a-51" style="edgeStyle=orthogonalEdgeStyle;rounded=0;orthogonalLoop=1;jettySize=auto;html=1;exitX=0.5;exitY=1;exitDx=0;exitDy=0;entryX=0.5;entryY=0;entryDx=0;entryDy=0;" edge="1" parent="1" source="bA5kErI_qKJ0i6vfES4a-52" target="bA5kErI_qKJ0i6vfES4a-54">
          <mxGeometry relative="1" as="geometry" />
        </mxCell>
        <mxCell id="bA5kErI_qKJ0i6vfES4a-52" value="parser" style="rounded=0;whiteSpace=wrap;html=1;" vertex="1" parent="1">
          <mxGeometry x="880" y="-125" width="120" height="60" as="geometry" />
        </mxCell>
        <mxCell id="bA5kErI_qKJ0i6vfES4a-53" style="edgeStyle=orthogonalEdgeStyle;rounded=0;orthogonalLoop=1;jettySize=auto;html=1;exitX=0.5;exitY=1;exitDx=0;exitDy=0;entryX=0.5;entryY=0;entryDx=0;entryDy=0;" edge="1" parent="1" source="bA5kErI_qKJ0i6vfES4a-54" target="bA5kErI_qKJ0i6vfES4a-55">
          <mxGeometry relative="1" as="geometry" />
        </mxCell>
        <mxCell id="bA5kErI_qKJ0i6vfES4a-54" value="validate" style="rounded=0;whiteSpace=wrap;html=1;" vertex="1" parent="1">
          <mxGeometry x="880" y="-45" width="120" height="60" as="geometry" />
        </mxCell>
        <mxCell id="bA5kErI_qKJ0i6vfES4a-61" style="edgeStyle=orthogonalEdgeStyle;rounded=0;orthogonalLoop=1;jettySize=auto;html=1;exitX=0.5;exitY=1;exitDx=0;exitDy=0;entryX=0.5;entryY=0;entryDx=0;entryDy=0;" edge="1" parent="1" source="bA5kErI_qKJ0i6vfES4a-55" target="bA5kErI_qKJ0i6vfES4a-59">
          <mxGeometry relative="1" as="geometry" />
        </mxCell>
        <mxCell id="bA5kErI_qKJ0i6vfES4a-55" value="validate" style="rounded=0;whiteSpace=wrap;html=1;" vertex="1" parent="1">
          <mxGeometry x="880" y="35" width="120" height="60" as="geometry" />
        </mxCell>
        <mxCell id="bA5kErI_qKJ0i6vfES4a-58" style="edgeStyle=orthogonalEdgeStyle;rounded=0;orthogonalLoop=1;jettySize=auto;html=1;exitX=0.55;exitY=0.95;exitDx=0;exitDy=0;exitPerimeter=0;entryX=0.5;entryY=0;entryDx=0;entryDy=0;" edge="1" parent="1" source="bA5kErI_qKJ0i6vfES4a-57" target="bA5kErI_qKJ0i6vfES4a-52">
          <mxGeometry relative="1" as="geometry" />
        </mxCell>
        <mxCell id="bA5kErI_qKJ0i6vfES4a-57" value="Query Task" style="ellipse;shape=cloud;whiteSpace=wrap;html=1;" vertex="1" parent="1">
          <mxGeometry x="874" y="-380" width="120" height="80" as="geometry" />
        </mxCell>
        <mxCell id="bA5kErI_qKJ0i6vfES4a-60" style="edgeStyle=orthogonalEdgeStyle;rounded=0;orthogonalLoop=1;jettySize=auto;html=1;exitX=0.5;exitY=1;exitDx=0;exitDy=0;entryX=0.5;entryY=0;entryDx=0;entryDy=0;" edge="1" parent="1" source="bA5kErI_qKJ0i6vfES4a-59" target="bA5kErI_qKJ0i6vfES4a-27">
          <mxGeometry relative="1" as="geometry" />
        </mxCell>
        <mxCell id="bA5kErI_qKJ0i6vfES4a-59" value="Optimizer" style="rounded=0;whiteSpace=wrap;html=1;" vertex="1" parent="1">
          <mxGeometry x="1080" y="-125" width="120" height="60" as="geometry" />
        </mxCell>
        <mxCell id="bA5kErI_qKJ0i6vfES4a-69" style="edgeStyle=orthogonalEdgeStyle;rounded=0;orthogonalLoop=1;jettySize=auto;html=1;exitX=1;exitY=0.5;exitDx=0;exitDy=0;entryX=0;entryY=0.5;entryDx=0;entryDy=0;" edge="1" parent="1" source="bA5kErI_qKJ0i6vfES4a-62" target="bA5kErI_qKJ0i6vfES4a-64">
          <mxGeometry relative="1" as="geometry" />
        </mxCell>
        <mxCell id="bA5kErI_qKJ0i6vfES4a-62" value="Select Engine" style="rounded=0;whiteSpace=wrap;html=1;" vertex="1" parent="1">
          <mxGeometry x="1080" y="35" width="120" height="60" as="geometry" />
        </mxCell>
        <mxCell id="bA5kErI_qKJ0i6vfES4a-64" value="Engine&lt;br&gt;&lt;br&gt;&lt;br&gt;&lt;br&gt;&lt;br&gt;&lt;br&gt;&lt;br&gt;&lt;br&gt;&lt;br&gt;&lt;br&gt;&lt;br&gt;&lt;br&gt;&lt;br&gt;&lt;br&gt;&lt;br&gt;&lt;br&gt;&lt;br&gt;&lt;br&gt;&lt;br&gt;&lt;br&gt;&lt;br&gt;" style="rounded=1;whiteSpace=wrap;html=1;dashed=1;" vertex="1" parent="1">
          <mxGeometry x="1300" y="-107.5" width="170" height="345" as="geometry" />
        </mxCell>
        <mxCell id="bA5kErI_qKJ0i6vfES4a-66" value="Spark" style="rounded=0;whiteSpace=wrap;html=1;" vertex="1" parent="1">
          <mxGeometry x="1330" y="-47.5" width="120" height="60" as="geometry" />
        </mxCell>
        <mxCell id="bA5kErI_qKJ0i6vfES4a-67" value="Presto" style="rounded=0;whiteSpace=wrap;html=1;" vertex="1" parent="1">
          <mxGeometry x="1330" y="42.5" width="120" height="60" as="geometry" />
        </mxCell>
        <mxCell id="bA5kErI_qKJ0i6vfES4a-68" value="StarRocks" style="rounded=0;whiteSpace=wrap;html=1;" vertex="1" parent="1">
          <mxGeometry x="1330" y="132.5" width="120" height="60" as="geometry" />
        </mxCell>
        <mxCell id="bA5kErI_qKJ0i6vfES4a-70" value="greedy" style="text;html=1;align=center;verticalAlign=middle;resizable=0;points=[];autosize=1;strokeColor=none;fillColor=none;" vertex="1" parent="1">
          <mxGeometry x="420" y="235" width="60" height="30" as="geometry" />
        </mxCell>
        <mxCell id="bA5kErI_qKJ0i6vfES4a-71" value="HTTP" style="text;html=1;align=center;verticalAlign=middle;resizable=0;points=[];autosize=1;strokeColor=none;fillColor=none;" vertex="1" parent="1">
          <mxGeometry x="50" y="215" width="50" height="30" as="geometry" />
        </mxCell>
      </root>
    </mxGraphModel>
  </diagram>
</mxfile>
